<?xml version="1.0" standalone="no"?>
<!DOCTYPE svg PUBLIC "-//W3C//DTD SVG 20010904//EN"
 "http://www.w3.org/TR/2001/REC-SVG-20010904/DTD/svg10.dtd">
<svg version="1.0" xmlns="http://www.w3.org/2000/svg"
 width="330.000000pt" height="150.000000pt" viewBox="0 0 330.000000 150.000000"
 preserveAspectRatio="xMidYMid meet">

<g transform="translate(0.000000,150.000000) scale(0.100000,-0.100000)"
fill="#000000" stroke="none">
<path d="M502 1003 c-18 -10 -71 -63 -118 -118 -74 -87 -82 -100 -64 -103 20
-3 19 -6 -16 -48 -20 -25 -34 -47 -32 -50 3 -2 18 0 33 6 15 6 30 8 32 6 3 -3
-16 -32 -41 -65 -25 -33 -46 -64 -46 -71 0 -6 30 12 67 40 36 27 68 48 70 46
2 -2 -1 -16 -7 -31 -16 -41 -5 -42 44 -1 43 35 45 35 48 14 3 -20 16 -11 110
70 85 73 110 100 119 131 37 125 -87 234 -199 174z m81 -45 c15 -37 16 -44 2
-57 -13 -14 -20 -10 -60 29 -45 44 -45 44 -23 57 42 23 62 16 81 -29z m42 30
c28 -13 30 -19 13 -36 -20 -20 -35 -14 -47 18 -11 33 -5 36 34 18z m-86 -133
c-13 -14 -19 -13 -57 2 -45 19 -50 34 -30 78 l12 26 45 -45 c41 -41 44 -47 30
-61z m149 39 c-5 -5 -43 10 -57 22 -2 2 4 13 15 25 l18 21 15 -31 c8 -17 12
-33 9 -37z m2 -48 c0 -11 -7 -30 -15 -40 -14 -18 -16 -17 -54 25 -35 39 -37
46 -25 60 13 15 18 15 54 -3 28 -14 40 -26 40 -42z m-237 -60 c22 -31 72 -56
114 -56 28 -1 28 -1 -17 -40 -52 -46 -60 -48 -52 -17 6 24 7 25 -62 -31 -34
-27 -40 -24 -26 13 15 40 6 42 -37 8 -64 -50 -69 -49 -29 5 40 55 42 71 6 52
-39 -21 -41 -5 -5 37 40 47 43 57 15 50 -27 -7 -26 -2 18 48 l37 43 9 -41 c4
-23 17 -55 29 -71z m22 62 c30 -13 31 -20 7 -42 -18 -15 -19 -15 -30 9 -21 46
-17 52 23 33z m157 -84 c-26 -21 -72 -18 -72 4 0 10 -6 27 -14 38 -13 17 -12
21 2 37 15 17 18 15 58 -24 39 -39 42 -44 26 -55z m-94 21 c7 -14 12 -28 12
-30 0 -9 -31 -5 -50 7 -18 11 -18 14 -3 30 21 24 28 23 41 -7z"/>
<path d="M2180 921 c0 -5 7 -11 15 -15 12 -4 15 -27 15 -120 0 -125 0 -126 66
-126 38 0 70 26 80 65 10 42 -4 94 -32 112 -23 15 -28 15 -60 0 l-34 -17 0 55
c0 52 -1 55 -25 55 -14 0 -25 -4 -25 -9z m141 -112 c17 -17 20 -29 16 -62 -7
-48 -28 -67 -74 -67 l-33 0 0 59 c0 51 3 62 22 75 30 21 44 20 69 -5z"/>
<path d="M2800 920 c0 -5 7 -10 15 -10 12 0 15 -19 15 -115 0 -96 -3 -115 -15
-115 -8 0 -15 -4 -15 -10 0 -5 18 -10 40 -10 22 0 40 5 40 10 0 6 -7 10 -15
10 -10 0 -15 11 -15 35 0 48 20 45 66 -10 20 -25 43 -45 50 -45 20 0 19 2 -26
50 -22 24 -40 49 -40 55 0 13 34 46 65 63 17 10 15 11 -18 12 -25 0 -36 -4
-32 -11 8 -12 -33 -59 -52 -59 -10 0 -13 20 -13 80 0 79 0 80 -25 80 -14 0
-25 -4 -25 -10z"/>
<path d="M1156 905 c-22 -23 -30 -59 -17 -83 6 -11 33 -28 60 -37 66 -22 82
-61 36 -91 -32 -21 -83 -10 -95 19 -8 20 -9 18 -9 -9 -1 -34 15 -44 72 -44 37
0 77 40 77 78 0 34 -21 55 -73 72 -47 15 -62 39 -41 68 21 30 84 31 91 2 8
-30 25 -24 21 8 -3 25 -7 27 -54 30 -37 2 -56 -2 -68 -13z"/>
<path d="M1928 894 c-5 -4 -8 -18 -8 -31 0 -14 -6 -23 -15 -23 -8 0 -15 -4
-15 -10 0 -5 7 -10 15 -10 12 0 15 -14 15 -69 0 -78 13 -97 56 -87 30 8 24 20
-9 21 -20 0 -22 6 -25 68 -3 66 -3 67 23 67 14 0 25 5 25 10 0 6 -11 10 -24
10 -20 0 -25 6 -28 31 -2 17 -6 27 -10 23z"/>
<path d="M1390 833 c-17 -12 -25 -13 -28 -5 -2 7 -13 12 -25 12 -16 0 -18 -3
-9 -12 15 -15 17 -208 2 -208 -5 0 -10 -4 -10 -10 0 -5 16 -10 35 -10 36 0 47
13 20 24 -8 3 -15 17 -15 32 0 21 3 25 18 19 43 -18 63 -17 87 5 31 29 40 71
25 115 -18 54 -56 69 -100 38z m64 -19 c10 -9 16 -33 16 -59 0 -65 -39 -93
-91 -65 -29 16 -27 103 3 124 29 20 52 20 72 0z"/>
<path d="M1582 840 c-30 -12 -54 -70 -46 -110 14 -65 93 -92 139 -45 42 41 29
131 -22 154 -28 13 -40 13 -71 1z m71 -23 c26 -18 33 -81 13 -112 -19 -29 -60
-33 -88 -8 -27 24 -25 97 4 117 27 19 48 20 71 3z"/>
<path d="M1810 830 c-24 -24 -30 -25 -30 -5 0 9 -9 15 -22 15 -17 0 -19 -3
-10 -12 15 -15 16 -148 2 -148 -5 0 -10 -4 -10 -10 0 -5 16 -10 35 -10 36 0
47 13 20 24 -20 7 -20 85 1 114 8 12 26 22 40 22 15 0 24 6 24 15 0 21 -26 19
-50 -5z"/>
<path d="M2063 838 c-47 -23 -31 -73 28 -93 26 -9 34 -17 34 -36 0 -20 -6 -25
-35 -27 -24 -3 -38 2 -47 14 -12 17 -13 16 -13 -3 0 -35 58 -45 98 -17 24 17
29 56 9 72 -6 6 -24 13 -39 17 -38 10 -54 31 -38 50 17 20 57 19 69 -2 9 -16
10 -16 11 3 0 33 -35 42 -77 22z"/>
<path d="M2444 839 c-44 -22 -59 -108 -26 -148 9 -12 33 -24 53 -27 29 -5 41
-1 65 19 25 22 29 32 28 72 -1 31 -7 53 -20 65 -24 24 -72 33 -100 19z m74
-25 c17 -11 22 -25 22 -56 0 -72 -55 -103 -101 -57 -17 17 -20 29 -16 62 8 62
49 84 95 51z"/>
<path d="M2652 840 c-30 -12 -54 -70 -46 -110 14 -65 93 -92 139 -45 42 41 29
131 -22 154 -28 13 -40 13 -71 1z m71 -23 c26 -18 33 -81 13 -112 -19 -29 -60
-33 -88 -8 -27 24 -25 97 4 117 27 19 48 20 71 3z"/>
</g>
</svg>
