<?xml version="1.0" encoding="UTF-8"?>
<!DOCTYPE svg PUBLIC "-//W3C//DTD SVG 1.1//EN" "http://www.w3.org/Graphics/SVG/1.1/DTD/svg11.dtd">
<svg xmlns="http://www.w3.org/2000/svg" version="1.1" width="400px" height="80px" style="shape-rendering:geometricPrecision; text-rendering:geometricPrecision; image-rendering:optimizeQuality; fill-rule:evenodd; clip-rule:evenodd" xmlns:xlink="http://www.w3.org/1999/xlink">
<g><path style="opacity:1" fill="#067b5a" d="M -0.5,-0.5 C 132.833,-0.5 266.167,-0.5 399.5,-0.5C 399.5,26.1667 399.5,52.8333 399.5,79.5C 266.167,79.5 132.833,79.5 -0.5,79.5C -0.5,52.8333 -0.5,26.1667 -0.5,-0.5 Z"/></g>
<g><path style="opacity:1" fill="#256155" d="M 31.5,7.5 C 35.7773,7.5448 39.7773,7.87813 43.5,8.5C 43.2176,10.9866 43.2176,13.6533 43.5,16.5C 40.8864,16.0684 38.2197,15.7351 35.5,15.5C 35.8333,14.8333 36.1667,14.1667 36.5,13.5C 34.9223,12.7022 33.2556,12.2022 31.5,12C 32.4132,10.5861 32.4132,9.08609 31.5,7.5 Z"/></g>
<g><path style="opacity:1" fill="#275e54" d="M 44.5,7.5 C 48.5546,7.17575 52.5546,7.50909 56.5,8.5C 54.9547,9.45189 53.288,9.78522 51.5,9.5C 51.5981,15.373 52.5981,15.7064 54.5,10.5C 55.3081,10.8076 55.9747,11.3076 56.5,12C 56.0338,13.2988 56.0338,14.7988 56.5,16.5C 52.5,16.5 48.5,16.5 44.5,16.5C 44.7872,13.4537 44.7872,10.4537 44.5,7.5 Z"/></g>
<g><path style="opacity:1" fill="#2a5c54" d="M 78.5,7.5 C 80.8333,8.83333 83.1667,8.83333 85.5,7.5C 85.2865,9.14387 85.6198,10.6439 86.5,12C 84.8654,12.5396 83.5321,12.0396 82.5,10.5C 81.5344,12.396 81.2011,14.396 81.5,16.5C 80.5,16.5 79.5,16.5 78.5,16.5C 78.5666,13.5333 78.5666,10.5333 78.5,7.5 Z"/></g>
<g><path style="opacity:1" fill="#216456" d="M 61.5,7.5 C 65.5546,7.17575 69.5546,7.50909 73.5,8.5C 73.0548,11.0534 73.0548,13.72 73.5,16.5C 69.5,16.5 65.5,16.5 61.5,16.5C 61.7872,13.4537 61.7872,10.4537 61.5,7.5 Z"/></g>
<g><path style="opacity:1" fill="#f5c30a" d="M 263.5,18.5 C 263.334,23.1785 263.501,27.8452 264,32.5C 264.717,31.9558 265.217,31.2891 265.5,30.5C 272.288,26.8371 277.455,28.5038 281,35.5C 283.361,43.4552 281.194,49.6219 274.5,54C 270.495,55.0981 266.995,54.2648 264,51.5C 262.152,53.9529 259.652,54.9529 256.5,54.5C 256.5,42.5 256.5,30.5 256.5,18.5C 258.833,18.5 261.167,18.5 263.5,18.5 Z"/></g>
<g><path style="opacity:1" fill="#91a52a" d="M 263.5,18.5 C 264.167,22.5 264.833,26.5 265.5,30.5C 265.217,31.2891 264.717,31.9558 264,32.5C 263.501,27.8452 263.334,23.1785 263.5,18.5 Z"/></g>
<g><path style="opacity:1" fill="#f8c408" d="M 353.5,18.5 C 353.334,25.5079 353.5,32.5079 354,39.5C 354.717,38.9558 355.217,38.2891 355.5,37.5C 357.962,34.5361 360.629,31.7028 363.5,29C 366.167,28.3333 368.833,28.3333 371.5,29C 368.536,32.9658 365.203,36.6325 361.5,40C 365.408,44.4851 369.074,49.1518 372.5,54C 369.446,54.8214 366.446,54.6548 363.5,53.5C 361.397,50.2802 359.064,47.2802 356.5,44.5C 355.522,44.9767 354.689,45.6433 354,46.5C 353.503,49.146 353.336,51.8127 353.5,54.5C 351.167,54.5 348.833,54.5 346.5,54.5C 346.5,42.5 346.5,30.5 346.5,18.5C 348.833,18.5 351.167,18.5 353.5,18.5 Z"/></g>
<g><path style="opacity:1" fill="#709c35" d="M 353.5,18.5 C 354.167,24.8333 354.833,31.1667 355.5,37.5C 355.217,38.2891 354.717,38.9558 354,39.5C 353.5,32.5079 353.334,25.5079 353.5,18.5 Z"/></g>
<g><path style="opacity:1" fill="#c79557" d="M 35.5,19.5 C 42.8333,19.5 50.1667,19.5 57.5,19.5C 57.5,23.8333 57.5,28.1667 57.5,32.5C 53.3706,32.9652 51.3706,35.2985 51.5,39.5C 51.3706,43.7015 53.3706,46.0348 57.5,46.5C 57.5,50.8333 57.5,55.1667 57.5,59.5C 50.1667,59.5 42.8333,59.5 35.5,59.5C 45.3987,51.707 48.232,41.707 44,29.5C 42.0221,25.3619 39.1888,22.0286 35.5,19.5 Z"/></g>
<g><path style="opacity:1" fill="#fcf9f4" d="M 57.5,19.5 C 58.1667,19.5 58.8333,19.5 59.5,19.5C 59.5,23.8333 59.5,28.1667 59.5,32.5C 63.7221,33.0707 65.7221,35.5707 65.5,40C 65.5647,43.4417 63.898,45.6084 60.5,46.5C 59.5078,50.7828 59.1744,55.1161 59.5,59.5C 58.8333,59.5 58.1667,59.5 57.5,59.5C 57.5,55.1667 57.5,50.8333 57.5,46.5C 53.3706,46.0348 51.3706,43.7015 51.5,39.5C 51.3706,35.2985 53.3706,32.9652 57.5,32.5C 57.5,28.1667 57.5,23.8333 57.5,19.5 Z"/></g>
<g><path style="opacity:1" fill="#c89456" d="M 59.5,19.5 C 66.5,19.5 73.5,19.5 80.5,19.5C 73.8861,24.4737 70.8861,31.1404 71.5,39.5C 70.8861,47.8596 73.8861,54.5263 80.5,59.5C 73.5,59.5 66.5,59.5 59.5,59.5C 59.1744,55.1161 59.5078,50.7828 60.5,46.5C 63.898,45.6084 65.5647,43.4417 65.5,40C 65.7221,35.5707 63.7221,33.0707 59.5,32.5C 59.5,28.1667 59.5,23.8333 59.5,19.5 Z"/></g>
<g><path style="opacity:1" fill="#c69557" d="M 88.5,20.5 C 88.5,24.5 88.5,28.5 88.5,32.5C 85.4318,32.5467 82.4318,33.0467 79.5,34C 78.1667,37.6667 78.1667,41.3333 79.5,45C 82.4318,45.9533 85.4318,46.4533 88.5,46.5C 88.5,50.5 88.5,54.5 88.5,58.5C 80.2791,57.4473 75.4458,52.7807 74,44.5C 72.6564,37.5747 73.9898,31.2414 78,25.5C 80.8046,22.3475 84.3046,20.6808 88.5,20.5 Z"/></g>
<g><path style="opacity:1" fill="#f5c30b" d="M 102.5,52.5 C 102.205,50.2646 102.539,48.2646 103.5,46.5C 106.1,47.3653 108.767,48.032 111.5,48.5C 113.593,48.5142 115.426,47.8476 117,46.5C 117.684,45.2161 117.517,44.0495 116.5,43C 111.919,41.1288 107.752,38.6288 104,35.5C 100.462,26.025 103.796,21.025 114,20.5C 117.834,20.4986 121.334,21.4986 124.5,23.5C 123.815,25.5473 122.649,27.2139 121,28.5C 118.02,26.7532 114.853,26.2532 111.5,27C 110.065,29.2672 110.398,31.2672 112.5,33C 116.931,34.6291 120.764,37.1291 124,40.5C 126.026,47.6221 123.526,52.1221 116.5,54C 112.833,54.6667 109.167,54.6667 105.5,54C 104.263,53.7679 103.263,53.2679 102.5,52.5 Z"/></g>
<g><path style="opacity:1" fill="#c89658" d="M 28.5,20.5 C 38.3091,22.5578 43.3091,28.7245 43.5,39C 43.3992,46.5351 40.3992,52.5351 34.5,57C 32.5643,57.813 30.5643,58.313 28.5,58.5C 28.5,54.5 28.5,50.5 28.5,46.5C 31.8333,45.8333 35.1667,45.1667 38.5,44.5C 38.8204,41.1016 38.487,37.7683 37.5,34.5C 34.5164,33.7254 31.5164,33.0587 28.5,32.5C 28.5,28.5 28.5,24.5 28.5,20.5 Z"/></g>
<g><path style="opacity:1" fill="#f8c409" d="M 227.5,33.5 C 224.833,33.5 222.167,33.5 219.5,33.5C 219.181,38.3633 219.514,43.03 220.5,47.5C 222.717,48.3686 225.05,48.702 227.5,48.5C 227.859,50.7659 227.192,52.5993 225.5,54C 222.5,54.6667 219.5,54.6667 216.5,54C 215.29,52.9609 214.29,51.7942 213.5,50.5C 213.5,44.8333 213.5,39.1667 213.5,33.5C 212.167,33.5 210.833,33.5 209.5,33.5C 209.277,30.8858 210.444,29.2191 213,28.5C 213.813,26.5643 214.313,24.5643 214.5,22.5C 216.5,22.5 218.5,22.5 220.5,22.5C 220.5,24.5 220.5,26.5 220.5,28.5C 222.833,28.5 225.167,28.5 227.5,28.5C 227.5,30.1667 227.5,31.8333 227.5,33.5 Z"/></g>
<g><path style="opacity:1" fill="#f1c20e" d="M 129.5,28.5 C 131.833,28.5 134.167,28.5 136.5,28.5C 136.281,29.675 136.614,30.675 137.5,31.5C 148.42,25.7953 154.087,29.1287 154.5,41.5C 154.519,53.149 149.186,56.8157 138.5,52.5C 137.508,56.7828 137.174,61.1161 137.5,65.5C 134.833,65.5 132.167,65.5 129.5,65.5C 129.5,53.1667 129.5,40.8333 129.5,28.5 Z"/></g>
<g><path style="opacity:1" fill="#f4c30b" d="M 166.5,28.5 C 181.694,27.2331 187.194,33.8997 183,48.5C 181.749,51.3807 179.583,53.214 176.5,54C 163.406,55.5725 157.572,49.7392 159,36.5C 160.69,32.9791 163.19,30.3124 166.5,28.5 Z"/></g>
<g><path style="opacity:1" fill="#edc110" d="M 189.5,28.5 C 191.833,28.5 194.167,28.5 196.5,28.5C 196.343,29.8734 196.51,31.2068 197,32.5C 199.697,29.1295 203.197,27.7962 207.5,28.5C 207.5,30.8333 207.5,33.1667 207.5,35.5C 203.808,34.9712 200.642,35.9712 198,38.5C 197.501,43.8229 197.334,49.1563 197.5,54.5C 194.833,54.5 192.167,54.5 189.5,54.5C 189.5,45.8333 189.5,37.1667 189.5,28.5 Z"/></g>
<g><path style="opacity:1" fill="#f4c30b" d="M 236.5,28.5 C 241.203,28.4372 245.87,28.7705 250.5,29.5C 250.868,32.0558 250.034,34.0558 248,35.5C 235.697,34.2426 235.53,35.7426 247.5,40C 253.232,45.6077 252.565,50.2744 245.5,54C 241.5,54.6667 237.5,54.6667 233.5,54C 231.75,52.2458 231.083,50.0792 231.5,47.5C 234.344,48.0579 237.178,48.7245 240,49.5C 241.971,49.7186 243.138,48.8853 243.5,47C 239.781,44.3864 235.948,41.8864 232,39.5C 230.393,34.4383 231.893,30.7716 236.5,28.5 Z"/></g>
<g><path style="opacity:1" fill="#f3c20c" d="M 293.5,28.5 C 307.476,27.6361 312.976,33.9694 310,47.5C 306.235,53.7603 300.735,55.9269 293.5,54C 285.958,50.0613 283.458,43.8947 286,35.5C 287.742,32.2543 290.242,29.921 293.5,28.5 Z"/></g>
<g><path style="opacity:1" fill="#f3c20c" d="M 322.5,28.5 C 339.202,27.7027 344.369,35.0361 338,50.5C 332.72,54.7551 326.886,55.5885 320.5,53C 312.144,44.0015 312.81,35.8348 322.5,28.5 Z"/></g>
<g><path style="opacity:1" fill="#e9efe8" d="M 28.5,20.5 C 30.6074,19.5318 32.9407,19.1984 35.5,19.5C 39.1888,22.0286 42.0221,25.3619 44,29.5C 48.232,41.707 45.3987,51.707 35.5,59.5C 32.9407,59.8016 30.6074,59.4682 28.5,58.5C 30.5643,58.313 32.5643,57.813 34.5,57C 40.3992,52.5351 43.3992,46.5351 43.5,39C 43.3091,28.7245 38.3091,22.5578 28.5,20.5 Z"/></g>
<g><path style="opacity:1" fill="#e8eee7" d="M 80.5,19.5 C 83.3854,19.1936 86.0521,19.5269 88.5,20.5C 84.3046,20.6808 80.8046,22.3475 78,25.5C 73.9898,31.2414 72.6564,37.5747 74,44.5C 75.4458,52.7807 80.2791,57.4473 88.5,58.5C 86.0521,59.4731 83.3854,59.8064 80.5,59.5C 73.8861,54.5263 70.8861,47.8596 71.5,39.5C 70.8861,31.1404 73.8861,24.4737 80.5,19.5 Z"/></g>
<g><path style="opacity:1" fill="#fbf3ed" d="M 28.5,32.5 C 31.5164,33.0587 34.5164,33.7254 37.5,34.5C 38.487,37.7683 38.8204,41.1016 38.5,44.5C 35.1667,45.1667 31.8333,45.8333 28.5,46.5C 28.5,45.8333 28.5,45.1667 28.5,44.5C 31.0961,43.7347 33.7628,43.4013 36.5,43.5C 36.5,40.8333 36.5,38.1667 36.5,35.5C 33.7628,35.5987 31.0961,35.2653 28.5,34.5C 28.5,33.8333 28.5,33.1667 28.5,32.5 Z"/></g>
<g><path style="opacity:1" fill="#f29f29" d="M 55.5,34.5 C 63.4396,33.9375 65.4396,37.1041 61.5,44C 53.424,44.8047 51.424,41.638 55.5,34.5 Z"/></g>
<g><path style="opacity:1" fill="#f8f0e7" d="M 88.5,32.5 C 88.5,33.1667 88.5,33.8333 88.5,34.5C 85.8728,35.0916 83.2062,35.4249 80.5,35.5C 80.5,38.1667 80.5,40.8333 80.5,43.5C 83.1667,43.8333 85.8333,44.1667 88.5,44.5C 88.5,45.1667 88.5,45.8333 88.5,46.5C 85.4318,46.4533 82.4318,45.9533 79.5,45C 78.1667,41.3333 78.1667,37.6667 79.5,34C 82.4318,33.0467 85.4318,32.5467 88.5,32.5 Z"/></g>
<g><path style="opacity:1" fill="#227f56" d="M 139.5,34.5 C 146.314,34.49 148.814,37.8233 147,44.5C 145.666,48.1044 143.166,49.271 139.5,48C 136.857,43.4352 136.857,38.9352 139.5,34.5 Z"/></g>
<g><path style="opacity:1" fill="#197e58" d="M 168.5,34.5 C 171.365,34.0548 173.865,34.7215 176,36.5C 176.667,39.8333 176.667,43.1667 176,46.5C 169.653,50.3983 166.486,48.5649 166.5,41C 166.482,38.5897 167.149,36.423 168.5,34.5 Z"/></g>
<g><path style="opacity:1" fill="#bdb31e" d="M 209.5,33.5 C 210.833,33.5 212.167,33.5 213.5,33.5C 213.5,39.1667 213.5,44.8333 213.5,50.5C 212.512,45.3595 212.179,40.0262 212.5,34.5C 211.209,34.7373 210.209,34.404 209.5,33.5 Z"/></g>
<g><path style="opacity:1" fill="#abad22" d="M 227.5,33.5 C 225.393,34.4682 223.059,34.8016 220.5,34.5C 220.5,38.8333 220.5,43.1667 220.5,47.5C 219.514,43.03 219.181,38.3633 219.5,33.5C 222.167,33.5 224.833,33.5 227.5,33.5 Z"/></g>
<g><path style="opacity:1" fill="#157d58" d="M 266.5,34.5 C 269.044,34.1043 271.211,34.771 273,36.5C 273.956,40.572 273.456,44.4054 271.5,48C 268.975,48.8959 266.808,48.3959 265,46.5C 263.994,42.1985 264.494,38.1985 266.5,34.5 Z"/></g>
<g><path style="opacity:1" fill="#167d58" d="M 295.5,34.5 C 302.314,34.49 304.814,37.8233 303,44.5C 300.866,48.8608 297.866,49.5275 294,46.5C 292.994,42.1985 293.494,38.1985 295.5,34.5 Z"/></g>
<g><path style="opacity:1" fill="#147d58" d="M 325.5,34.5 C 328.044,34.1043 330.211,34.771 332,36.5C 332.667,39.8333 332.667,43.1667 332,46.5C 328.195,49.5388 325.195,48.8721 323,44.5C 321.861,40.5789 322.695,37.2456 325.5,34.5 Z"/></g>
<g><path style="opacity:1" fill="#f29655" d="M 28.5,34.5 C 31.0961,35.2653 33.7628,35.5987 36.5,35.5C 36.5,38.1667 36.5,40.8333 36.5,43.5C 33.7628,43.4013 31.0961,43.7347 28.5,44.5C 28.5,41.1667 28.5,37.8333 28.5,34.5 Z"/></g>
<g><path style="opacity:1" fill="#f09351" d="M 88.5,34.5 C 88.5,37.8333 88.5,41.1667 88.5,44.5C 85.8333,44.1667 83.1667,43.8333 80.5,43.5C 80.5,40.8333 80.5,38.1667 80.5,35.5C 83.2062,35.4249 85.8728,35.0916 88.5,34.5 Z"/></g>
<g><path style="opacity:1" fill="#8da42b" d="M 103.5,46.5 C 102.539,48.2646 102.205,50.2646 102.5,52.5C 101.203,50.3066 101.203,47.9732 102.5,45.5C 103.107,45.6236 103.44,45.9569 103.5,46.5 Z"/></g>
<g><path style="opacity:1" fill="#246255" d="M 60.5,63.5 C 64.5546,63.1758 68.5546,63.5091 72.5,64.5C 72.5,66.5 72.5,68.5 72.5,70.5C 68.8956,70.6553 64.8956,70.6553 60.5,70.5C 60.838,68.3448 60.838,66.0115 60.5,63.5 Z"/></g>
<g><path style="opacity:1" fill="#256155" d="M 35.5,63.5 C 37.8568,63.3367 40.1902,63.5034 42.5,64C 41.6721,64.9147 40.6721,65.5814 39.5,66C 40.624,66.2492 41.624,66.7492 42.5,67.5C 41.1667,68.5 41.1667,69.5 42.5,70.5C 38.8915,71.2462 35.3915,71.5796 32,71.5C 31.5,71.1667 31,70.8333 30.5,70.5C 31.8333,69.5 31.8333,68.5 30.5,67.5C 32.0453,66.5481 33.712,66.2148 35.5,66.5C 35.5,65.5 35.5,64.5 35.5,63.5 Z"/></g>
<g><path style="opacity:1" fill="#236355" d="M 43.5,63.5 C 48.8333,63.5 54.1667,63.5 59.5,63.5C 59.162,66.0115 59.162,68.3448 59.5,70.5C 59,70.8333 58.5,71.1667 58,71.5C 53.6667,71.5 49.3333,71.5 45,71.5C 44.5,71.1667 44,70.8333 43.5,70.5C 43.838,68.3448 43.838,66.0115 43.5,63.5 Z"/></g>
<g><path style="opacity:1" fill="#266155" d="M 77.5,63.5 C 78.5,63.5 79.5,63.5 80.5,63.5C 80.5,64.5 80.5,65.5 80.5,66.5C 81.8333,66.5 83.1667,66.5 84.5,66.5C 84.5,68.1667 84.5,69.8333 84.5,71.5C 82.076,71.8076 79.7427,71.4742 77.5,70.5C 77.838,68.3448 77.838,66.0115 77.5,63.5 Z"/></g>
</svg>
