<?xml version="1.0" encoding="iso-8859-1"?>
<!-- Uploaded to: SVG Repo, www.svgrepo.com, Generator: SVG Repo Mixer Tools -->
<svg version="1.1" id="Layer_1" xmlns="http://www.w3.org/2000/svg" xmlns:xlink="http://www.w3.org/1999/xlink" 
	 viewBox="0 0 512 512" xml:space="preserve">
<rect y="76.8" style="fill:#FFAF33;" width="512" height="358.4"/>
<rect x="256" y="76.8" style="fill:#FF9800;" width="256" height="358.4"/>
<path style="fill:#CFCDD2;" d="M409.236,236.803c1.834-0.033,3.645-0.259,5.389-0.671L512,214.51v-39.336L407.178,198.45
	C376.631,199.732,352,225.268,352,256c0,30.734,24.63,56.271,55.178,57.55L512,336.826V297.49l-97.385-21.624
	c-1.745-0.411-3.552-0.636-5.381-0.668C398.849,275.007,390.4,266.395,390.4,256C390.4,245.605,398.849,236.993,409.236,236.803z"/>
<g>
	<path style="fill:#DFDFE1;" d="M104.822,198.45L0,175.174v39.336l97.375,21.622c1.745,0.412,3.556,0.637,5.391,0.671
		c10.385,0.191,18.834,8.803,18.834,19.197c0,10.395-8.449,19.007-18.836,19.197c-1.827,0.033-3.634,0.257-5.379,0.668L0,297.49
		v39.336l104.822-23.276C135.369,312.268,160,286.732,160,256C160,225.266,135.37,199.729,104.822,198.45z"/>
	<path style="fill:#DFDFE1;" d="M313.6,256c0-25.03-16.052-46.372-38.4-54.298V76.8h-38.4v124.902
		c-22.348,7.926-38.4,29.267-38.4,54.298s16.052,46.372,38.4,54.298V435.2h38.4V310.298C297.548,302.372,313.6,281.03,313.6,256z
		 M256,275.2c-10.587,0-19.2-8.613-19.2-19.2s8.613-19.2,19.2-19.2s19.2,8.613,19.2,19.2S266.587,275.2,256,275.2z"/>
</g>
<path style="fill:#CFCDD2;" d="M275.2,201.702V76.8H256v160c10.587,0,19.2,8.613,19.2,19.2s-8.613,19.2-19.2,19.2v160h19.2V310.298
	c22.348-7.926,38.4-29.267,38.4-54.298S297.548,209.628,275.2,201.702z"/>
</svg>