<?xml version="1.0" standalone="no"?>
<!DOCTYPE svg PUBLIC "-//W3C//DTD SVG 20010904//EN"
 "http://www.w3.org/TR/2001/REC-SVG-20010904/DTD/svg10.dtd">
<svg version="1.0" xmlns="http://www.w3.org/2000/svg"
 width="15em" height="5em" viewBox="0 0 159.000000 32.000000"
 preserveAspectRatio="xMidYMid meet">

<g transform="translate(0.000000,32.000000) scale(0.100000,-0.100000)"
fill="yellow"  stroke="black">
<path d="M0 160 l0 -160 795 0 795 0 0 160 0 160 -795 0 -795 0 0 -160z m277
98 c40 -38 31 -75 -34 -135 -32 -30 -62 -52 -68 -49 -6 2 -19 -2 -30 -10 -14
-10 -21 -11 -26 -3 -5 8 -14 7 -30 -5 -35 -24 -43 -19 -20 13 25 35 26 42 5
34 -14 -5 -15 -3 -5 15 6 11 15 24 21 27 5 3 7 11 4 18 -2 7 16 36 42 65 39
45 51 52 82 52 23 0 44 -8 59 -22z m833 -46 c0 -26 3 -28 30 -24 24 3 30 0 35
-21 10 -37 -3 -66 -30 -73 -36 -9 -45 2 -45 61 0 30 -4 57 -10 60 -15 9 -12
25 5 25 10 0 15 -10 15 -28z m330 -12 c0 -40 15 -54 26 -25 4 8 16 15 27 15
21 0 21 0 -1 -21 l-22 -20 20 -30 c25 -34 16 -38 -17 -7 -25 23 -44 18 -23 -7
11 -13 8 -15 -16 -15 -22 0 -25 3 -16 12 16 16 16 110 0 126 -9 9 -8 12 5 12
13 0 17 -9 17 -40z m-840 15 c0 -13 -3 -13 -20 -3 -15 9 -22 10 -31 1 -14 -14
-4 -32 27 -43 27 -11 33 -50 10 -70 -22 -17 -60 -9 -63 15 -2 11 0 14 3 8 7
-16 50 -17 60 -1 4 7 0 16 -10 22 -51 30 -59 42 -47 64 14 26 71 32 71 7z
m368 -33 c-12 -5 -10 -72 2 -72 6 0 10 -4 10 -10 0 -20 -30 -9 -35 13 -6 27
-9 66 -7 90 2 16 3 16 20 0 10 -10 14 -19 10 -21z m-260 -4 c17 -14 15 -63 -3
-78 -8 -7 -23 -9 -36 -5 -19 6 -21 4 -16 -14 4 -15 1 -21 -11 -21 -14 0 -17
11 -17 64 l0 64 35 0 c19 0 41 -5 48 -10z m116 -21 c8 -23 6 -31 -12 -49 -18
-19 -25 -20 -47 -10 -28 13 -35 58 -13 80 22 22 62 10 72 -21z m67 12 c-23
-22 -27 -49 -9 -67 9 -9 8 -12 -8 -12 -16 0 -19 7 -19 49 0 46 1 48 29 49 l28
1 -21 -20z m169 10 c0 -5 -4 -7 -10 -4 -5 3 -15 3 -21 -1 -7 -4 -1 -15 17 -29
25 -20 27 -25 15 -39 -16 -19 -52 -18 -59 2 -3 11 0 12 16 3 34 -18 39 8 7 33
-17 13 -25 28 -21 34 9 15 56 16 56 1z m223 -10 c14 -23 1 -67 -23 -74 -46
-15 -82 49 -48 83 17 17 58 11 71 -9z m107 0 c25 -47 -15 -93 -60 -69 -23 12
-28 58 -8 78 19 19 56 14 68 -9z"/>
<path d="M185 261 c-5 -10 35 -44 43 -37 2 3 1 14 -3 25 -7 22 -29 28 -40 12z"/>
<path d="M240 260 c0 -5 5 -10 11 -10 5 0 7 5 4 10 -3 6 -8 10 -11 10 -2 0 -4
-4 -4 -10z"/>
<path d="M265 241 c-3 -5 -1 -12 5 -16 5 -3 10 1 10 9 0 18 -6 21 -15 7z"/>
<path d="M160 225 c0 -16 34 -38 44 -28 7 7 -23 43 -36 43 -4 0 -8 -7 -8 -15z"/>
<path d="M240 207 c0 -14 19 -37 32 -37 16 0 7 30 -12 40 -15 8 -20 8 -20 -3z"/>
<path d="M125 194 c-4 -11 -7 -23 -6 -28 1 -5 -6 -17 -16 -28 -16 -17 -16 -18
0 -12 18 7 24 -11 7 -21 -5 -3 -10 -11 -10 -17 0 -6 9 -3 20 7 18 17 20 17 20
1 0 -15 2 -16 21 -2 12 8 27 12 34 10 6 -3 17 1 24 9 9 12 6 16 -18 20 -22 5
-36 17 -49 43 -17 32 -20 34 -27 18z"/>
<path d="M160 180 c0 -5 5 -10 10 -10 6 0 10 5 10 10 0 6 -4 10 -10 10 -5 0
-10 -4 -10 -10z"/>
<path d="M210 178 c0 -24 16 -39 34 -32 16 6 16 8 0 25 -20 22 -34 25 -34 7z"/>
<path d="M186 161 c-3 -5 1 -11 9 -15 8 -3 15 -1 15 4 0 13 -18 22 -24 11z"/>
<path d="M1122 168 c-7 -7 -12 -22 -12 -35 0 -18 6 -23 24 -23 27 0 42 35 24
57 -13 16 -21 16 -36 1z"/>
<path d="M657 174 c-13 -13 -7 -62 7 -67 20 -8 38 17 34 45 -3 22 -27 35 -41
22z"/>
<path d="M761 158 c-12 -31 -3 -50 23 -46 16 2 21 10 21 33 0 38 -31 47 -44
13z"/>
<path d="M1221 161 c-15 -27 -3 -53 23 -49 16 2 21 10 21 33 0 36 -28 46 -44
16z"/>
<path d="M1337 174 c-4 -4 -7 -20 -7 -36 0 -23 4 -28 26 -28 23 0 25 3 22 32
-3 31 -25 48 -41 32z"/>
</g>
</svg>
